<?xml version="1.0" encoding="UTF-8" standalone="no"?>
<svg xmlns="http://www.w3.org/2000/svg" width="420" height="420">
<path d="m 311.01524,116.99213 c -25.05611,14.85825 -45.76116,36.278 -59.5812,62.00025 0,0 42.711,23.40675 42.19835,72.92562 -0.0362,3.912 -0.34125,7.64188 -0.82612,11.21188 -5.07291,75.04625 -66.98243,133.88775 -143.34958,133.88775 -10.01587,0 -19.78756,-1.03875 -29.22868,-2.9845 25.98645,16.4275 56.75664,25.96575 89.77162,25.96575 92.97245,0 168.34286,-75.37325 168.34286,-168.34575 0,-55.06225 -26.44697,-103.94725 -67.32729,-134.661 z" fill="#fff"/>
<path d="m 149.45673,389.80125 c 60.06171,0 111.55766,-38.482 130.23426,-92.19837 -15.32941,22.59062 -37.80872,31.49487 -37.80872,31.49487 -11.13898,-22.4515 -17.40069,-47.75537 -17.40069,-74.51575 0,-60.236 31.71481,-113.06062 79.35877,-142.69412 -0.004,-0.006 -0.007,-0.006 -0.007,-0.006 16.00556,-9.94938 33.7861,-17.31925 52.78972,-21.42613 0,0 -44.60379,-20.55512 -105.8336,-7.90037 0,0 -11.66877,-55.66913 -40.05709,-81.32788 L 209.84987,0 209.01663,1.2275 c -28.39188,25.65875 -40.06066,81.32788 -40.06066,81.32788 -61.2298,-12.65475 -105.833575,7.90037 -105.833575,7.90037 19.05643,4.1205 36.878395,11.51888 52.921775,21.50325 0,0 -0.007,0.006 -0.0137,0.0125 47.57041,29.64775 79.2331,82.43025 79.2331,142.6105 0,26.7605 -6.26527,52.06438 -17.39999,74.51575 0,0 -51.16179,-20.22737 -51.75441,-77.17962 -0.51262,-49.51888 42.20193,-72.92575 42.20193,-72.92575 -13.79576,-25.673 -34.44512,-47.05838 -59.43482,-61.91663 -40.817495,30.721 -67.218775,79.56375 -67.218775,134.5775 0,52.41988 23.96085,99.24063 61.522545,130.11575 14.46118,5.18 30.03048,8.03238 46.27665,8.03238 z" fill="#fff"/>
</svg>